<?xml version="1.0" encoding="iso-8859-1"?>
<!-- Uploaded to: SVG Repo, www.svgrepo.com, Generator: SVG Repo Mixer Tools -->
<svg fill="#000000" height="24" width="24" version="1.1" id="Layer_1" xmlns="http://www.w3.org/2000/svg" xmlns:xlink="http://www.w3.org/1999/xlink" 
	 viewBox="0 0 512.179 512.179" xml:space="preserve">
<g>
	<g>
		<path d="M505.166,151.82c-11.323-10.489-23.295-19.17-35.833-26.108V42.756c0-11.782-9.551-21.333-21.333-21.333H21.333
			C9.551,21.423,0,30.974,0,42.756v426.667c0,11.782,9.551,21.333,21.333,21.333H448c11.782,0,21.333-9.551,21.333-21.333V182.976
			c4.263,0.723,8.36,1.982,12.316,3.827C503.705,197.093,523.02,168.359,505.166,151.82z M370.213,174.442
			c-8.443,6.16-15.945,12.313-22.326,18.007l-30.23-30.23c0.83-0.344,1.67-0.685,2.519-1.024
			c30.727-12.268,62.174-17.078,92.069-11.124C398.152,156.018,384.116,164.298,370.213,174.442z M343.372,248.277l-93.712,6.242
			l6.242-93.712L343.372,248.277z M426.667,448.089h-384v-384h384v45.091c-40.639-9.72-82.347-3.789-122.264,12.259
			c-7.183,2.888-13.542,5.79-19.003,8.525l-32.574-32.574c-12.961-12.961-35.153-4.622-36.371,13.667l-10.987,164.949
			c-0.858,12.878,9.826,23.562,22.704,22.704l164.949-10.987c18.289-1.218,26.628-23.41,13.667-36.371l-28.59-28.59
			c5.368-4.702,11.116-9.34,17.164-13.735c10.564-7.676,21.092-13.933,31.304-18.446V448.089z"/>
	</g>
</g>
</svg>